<svg width="32" height="32" viewBox="0 0 32 32" fill="none" xmlns="http://www.w3.org/2000/svg">
<path d="M5.00146 15.3333C5.0913 10.2564 10.4031 6 15.5015 6C20.6562 6 26.0015 10.1786 26.0015 15.3333C26.0015 17.7659 25.5002 19 24.0002 21C24.0002 21 24 23 25 24C26 25 26.5 25 26.5 25H22H15.5015C9.5 25 4.91163 20.4103 5.00146 15.3333Z" fill="white"/>
<path d="M26.5 25C26.5 25 26 25 25 24C24 23 24.0002 21 24.0002 21C25.5002 19 26.0015 17.7659 26.0015 15.3333C26.0015 10.1786 20.6562 6 15.5015 6C10.4031 6 5.0913 10.2564 5.00146 15.3333C4.91163 20.4103 9.5 25 15.5015 25H22M26.5 25C26.5 25 23.5 25 22 25M26.5 25H22" stroke="white" stroke-linecap="round" stroke-linejoin="round"/>
</svg>
