<svg width="20" height="20" viewBox="0 0 20 20" fill="none" xmlns="http://www.w3.org/2000/svg">
<circle cx="10" cy="10" r="10" fill="white"/>
<circle cx="10" cy="10" r="9.5" stroke="#333333" stroke-opacity="0.5"/>
<path fill-rule="evenodd" clip-rule="evenodd" d="M7.87714 14.0621L6.10943 14.062L6.10938 12.2943L10.4699 7.93377L12.2375 9.7014C12.2376 9.70145 12.2376 9.70149 12.2377 9.70154L7.87714 14.0621ZM12.9448 8.99443L14.359 7.58026L12.5912 5.8125L11.177 7.22667L12.9446 8.9943C12.9447 8.99434 12.9447 8.99439 12.9448 8.99443Z" fill="#333333"/>
<path d="M6.10943 14.062L5.85943 14.062C5.85943 14.2001 5.97136 14.312 6.10942 14.312L6.10943 14.062ZM7.87714 14.0621L7.87714 14.3121C7.94344 14.3121 8.00703 14.2857 8.05392 14.2388L7.87714 14.0621ZM6.10938 12.2943L5.9326 12.1175C5.88571 12.1644 5.85937 12.228 5.85938 12.2943L6.10938 12.2943ZM10.4699 7.93377L10.6467 7.757C10.5998 7.71011 10.5362 7.68377 10.4699 7.68377C10.4036 7.68377 10.34 7.71011 10.2931 7.757L10.4699 7.93377ZM12.2375 9.7014L12.4148 9.52509L12.4143 9.52463L12.2375 9.7014ZM12.2377 9.70154L12.4145 9.87831C12.5119 9.78087 12.5121 9.62294 12.4149 9.52523L12.2377 9.70154ZM12.9448 8.99443L12.7675 9.17074C12.8144 9.21783 12.878 9.24434 12.9445 9.24443C13.0109 9.24452 13.0746 9.21817 13.1216 9.17121L12.9448 8.99443ZM14.359 7.58026L14.5357 7.75704C14.5826 7.71015 14.609 7.64656 14.609 7.58026C14.609 7.51395 14.5826 7.45037 14.5357 7.40348L14.359 7.58026ZM12.5912 5.8125L12.768 5.63572C12.6703 5.53809 12.512 5.53809 12.4144 5.63572L12.5912 5.8125ZM11.177 7.22667L11.0002 7.04989C10.9026 7.14752 10.9026 7.30581 11.0002 7.40344L11.177 7.22667ZM12.9446 8.9943L12.7679 9.17107L12.7683 9.17154L12.9446 8.9943ZM6.10942 14.312L7.87714 14.3121L7.87715 13.8121L6.10944 13.812L6.10942 14.312ZM5.85938 12.2943L5.85943 14.062L6.35943 14.062L6.35938 12.2943L5.85938 12.2943ZM10.2931 7.757L5.9326 12.1175L6.28615 12.4711L10.6467 8.11055L10.2931 7.757ZM12.4143 9.52463L10.6467 7.757L10.2931 8.11055L12.0608 9.87818L12.4143 9.52463ZM12.4149 9.52523L12.4148 9.52509L12.0603 9.87771L12.0604 9.87784L12.4149 9.52523ZM8.05392 14.2388L12.4145 9.87831L12.0609 9.52476L7.70037 13.8853L8.05392 14.2388ZM13.1216 9.17121L14.5357 7.75704L14.1822 7.40348L12.768 8.81765L13.1216 9.17121ZM14.5357 7.40348L12.768 5.63572L12.4144 5.98928L14.1822 7.75704L14.5357 7.40348ZM12.4144 5.63572L11.0002 7.04989L11.3538 7.40344L12.768 5.98928L12.4144 5.63572ZM11.0002 7.40344L12.7679 9.17107L13.1214 8.81752L11.3538 7.04989L11.0002 7.40344ZM12.7683 9.17154C12.7678 9.17104 12.7674 9.17062 12.7675 9.17074L13.122 8.81812C13.122 8.81812 13.1219 8.81798 13.1217 8.81782C13.1216 8.81765 13.1213 8.81738 13.121 8.81705L12.7683 9.17154Z" fill="#333333"/>
</svg>
