<svg width="24" height="24" viewBox="0 0 24 24" fill="none" xmlns="http://www.w3.org/2000/svg">
<path fill-rule="evenodd" clip-rule="evenodd" d="M20.738 5.21654L11.4855 14.4691L13.8256 19.7344C14.1934 20.562 15.3841 20.5134 15.6833 19.6586L20.738 5.21654ZM10.0716 13.0545L19.3258 3.80029L4.88074 8.85607C4.0259 9.15526 3.97733 10.3459 4.80495 10.7137L10.0716 13.0545Z" fill="white"/>
<path d="M20.738 5.21654L21.2099 5.38171C21.287 5.16152 21.2015 4.91731 21.004 4.79318C20.8065 4.66906 20.5494 4.69803 20.3844 4.86298L20.738 5.21654ZM11.4855 14.4691L11.1319 14.1155C10.9856 14.2618 10.9445 14.4831 11.0286 14.6721L11.4855 14.4691ZM13.8256 19.7344L14.2825 19.5313V19.5313L13.8256 19.7344ZM15.6833 19.6586L15.2113 19.4934L15.6833 19.6586ZM10.0716 13.0545L9.86855 13.5114C10.0576 13.5954 10.2789 13.5543 10.4252 13.408L10.0716 13.0545ZM19.3258 3.80029L19.6794 4.15385C19.8443 3.98889 19.8733 3.73178 19.7492 3.53426C19.625 3.33674 19.3808 3.2513 19.1606 3.32836L19.3258 3.80029ZM4.88074 8.85607L4.71556 8.38414H4.71556L4.88074 8.85607ZM4.80495 10.7137L5.00802 10.2568H5.00802L4.80495 10.7137ZM20.3844 4.86298L11.1319 14.1155L11.839 14.8226L21.0915 5.57009L20.3844 4.86298ZM14.2825 19.5313L11.9424 14.266L11.0286 14.6721L13.3687 19.9375L14.2825 19.5313ZM15.2113 19.4934C15.0617 19.9208 14.4664 19.9451 14.2825 19.5313L13.3687 19.9375C13.9204 21.1789 15.7064 21.106 16.1552 19.8238L15.2113 19.4934ZM20.2661 5.05136L15.2113 19.4934L16.1552 19.8238L21.2099 5.38171L20.2661 5.05136ZM10.4252 13.408L19.6794 4.15385L18.9723 3.44674L9.71807 12.7009L10.4252 13.408ZM5.04591 9.32799L19.491 4.27222L19.1606 3.32836L4.71556 8.38414L5.04591 9.32799ZM5.00802 10.2568C4.59421 10.0729 4.61849 9.47759 5.04591 9.32799L4.71556 8.38414C3.43331 8.83293 3.36044 10.6189 4.60188 11.1706L5.00802 10.2568ZM10.2747 12.5976L5.00802 10.2568L4.60188 11.1706L9.86855 13.5114L10.2747 12.5976Z" fill="white"/>
</svg>
