<svg width="140" height="26" viewBox="0 0 140 26" fill="none" xmlns="http://www.w3.org/2000/svg">
<path d="M9.38913 2.6C11.5011 2.6 13.0851 2.848 14.1411 3.344C15.1971 3.824 15.7251 4.6 15.7251 5.672C15.7251 6.728 15.3971 7.536 14.7411 8.096C14.1011 8.64 13.3651 8.912 12.5331 8.912C11.7011 8.912 10.9491 8.704 10.2771 8.288C9.62113 7.856 9.16513 7.288 8.90913 6.584C8.31713 6.584 7.74913 6.784 7.20513 7.184C6.67713 7.568 6.34113 8.072 6.19713 8.696C9.36513 9.464 11.6371 10.36 13.0131 11.384C14.3891 12.408 15.0771 13.72 15.0771 15.32C15.0771 16.92 14.3491 18.2 12.8931 19.16C11.4531 20.12 9.50113 20.6 7.03713 20.6C4.58913 20.6 2.85313 20.264 1.82913 19.592C0.805125 18.92 0.293125 18.032 0.293125 16.928C0.293125 15.824 0.637125 14.808 1.32513 13.88C1.66113 14.6 2.30113 15.248 3.24513 15.824C4.20513 16.4 5.14913 16.688 6.07713 16.688C7.78913 16.688 8.87713 16.144 9.34113 15.056C6.68513 14.704 4.66113 13.968 3.26913 12.848C1.87713 11.712 1.18113 10.344 1.18113 8.744C1.18113 7.672 1.46913 6.72 2.04513 5.888C2.62113 5.04 3.35713 4.392 4.25313 3.944C6.01313 3.048 7.72513 2.6 9.38913 2.6ZM17.5846 11.336C17.4726 10.888 17.4166 10.472 17.4166 10.088C17.4166 9.304 17.6486 8.712 18.1126 8.312C18.5766 7.912 19.1766 7.712 19.9126 7.712C19.9126 6.88 19.6966 5.976 19.2646 5C20.0486 4.424 20.7606 3.992 21.4006 3.704C22.0566 3.4 22.7446 3.248 23.4646 3.248C24.1846 3.248 24.6806 3.384 24.9526 3.656C25.2406 3.912 25.3846 4.312 25.3846 4.856C25.3846 5.4 25.2726 6.248 25.0486 7.4C25.6886 7.304 26.3366 7.168 26.9926 6.992C27.1046 7.328 27.1606 7.76 27.1606 8.288C27.1606 8.816 26.9526 9.312 26.5366 9.776C26.1366 10.224 25.5446 10.448 24.7606 10.448H24.4006C23.8246 13.056 23.5366 15.064 23.5366 16.472C23.5366 17.88 23.7846 18.864 24.2806 19.424C23.3846 20.208 22.4326 20.6 21.4246 20.6C20.4166 20.6 19.6886 20.304 19.2406 19.712C18.8086 19.104 18.5926 18.168 18.5926 16.904C18.5926 16.136 18.8726 14.12 19.4326 10.856C18.7926 10.968 18.1766 11.128 17.5846 11.336ZM32.7426 20.6C31.3346 20.6 30.3506 20.256 29.7906 19.568C29.2306 18.88 28.9506 18.016 28.9506 16.976C28.9506 15.92 29.1266 14.48 29.4786 12.656C29.8306 10.832 30.0066 9.512 30.0066 8.696C30.0066 7.88 29.8386 7.24 29.5026 6.776C30.9906 5.992 32.2466 5.6 33.2706 5.6C33.9266 5.6 34.3986 5.736 34.6866 6.008C34.9906 6.264 35.1426 6.688 35.1426 7.28C35.1426 7.872 34.8946 9.328 34.3986 11.648C33.9186 13.952 33.6786 15.376 33.6786 15.92C33.6786 16.464 33.8306 16.896 34.1346 17.216C34.4386 17.52 34.8386 17.672 35.3346 17.672C35.8306 17.672 36.3586 17.48 36.9186 17.096C37.4786 16.696 37.9346 16.136 38.2866 15.416C38.5106 14.12 38.9506 12.072 39.6066 9.272L38.1666 7.352C39.7826 6.184 41.3186 5.6 42.7746 5.6C43.4946 5.6 44.0066 5.736 44.3106 6.008C44.6306 6.264 44.7906 6.664 44.7906 7.208C44.7906 7.736 44.4946 9.264 43.9026 11.792C43.3266 14.32 43.0386 16.12 43.0386 17.192C43.0386 18.248 43.2866 18.992 43.7826 19.424C42.8866 20.208 41.9426 20.6 40.9506 20.6C39.9746 20.6 39.2706 20.384 38.8386 19.952C38.4066 19.52 38.1906 18.952 38.1906 18.248L37.9506 18.128C37.4226 18.896 36.6866 19.504 35.7426 19.952C34.8146 20.384 33.8146 20.6 32.7426 20.6ZM56.0868 18.248L55.8468 18.128C54.5988 19.776 53.1108 20.6 51.3828 20.6C50.1028 20.6 49.0148 20.096 48.1188 19.088C47.2388 18.064 46.7988 16.688 46.7988 14.96C46.7988 12.816 47.5508 10.864 49.0548 9.104C49.7908 8.24 50.7748 7.544 52.0068 7.016C53.2388 6.472 54.6148 6.2 56.1348 6.2C56.4228 6.2 56.9348 6.232 57.6708 6.296C57.7028 5.96 57.7748 5.552 57.8868 5.072L56.5428 3.152C58.5428 1.984 60.1188 1.4 61.2708 1.4C61.9268 1.4 62.3908 1.536 62.6628 1.808C62.9348 2.064 63.0708 2.56 63.0708 3.296C63.0708 4.016 62.7108 6.064 61.9908 9.44C61.2868 12.816 60.9348 15.216 60.9348 16.64C60.9348 18.048 61.1828 18.976 61.6788 19.424C60.7828 20.208 59.8468 20.6 58.8708 20.6C57.9108 20.6 57.2068 20.36 56.7588 19.88C56.3108 19.384 56.0868 18.84 56.0868 18.248ZM51.3108 14.048C51.3108 14.96 51.5428 15.68 52.0068 16.208C52.4868 16.736 53.0788 17 53.7828 17C54.6948 17 55.5268 16.568 56.2788 15.704C56.5348 12.856 56.8948 10.392 57.3588 8.312C55.5188 8.312 54.0468 8.904 52.9428 10.088C51.8548 11.272 51.3108 12.592 51.3108 14.048ZM71.6399 19.52C70.8879 19.792 70.1359 19.928 69.3839 19.928C68.6319 19.928 67.9999 19.704 67.4879 19.256C66.9759 18.808 66.6799 18.2 66.5999 17.432C66.5199 16.664 66.4479 15.552 66.3839 14.096C66.3199 12.624 66.2559 11.584 66.1919 10.976C65.9839 8.944 65.3439 7.496 64.2719 6.632C65.0239 5.944 65.9679 5.6 67.1039 5.6C67.7279 5.6 68.2719 5.768 68.7359 6.104C69.1999 6.424 69.5679 6.856 69.8399 7.4C70.1279 7.928 70.3599 8.616 70.5359 9.464C70.8079 10.872 70.9439 12.776 70.9439 15.176C70.9439 15.768 70.9199 16.464 70.8719 17.264H72.2639C73.9119 12.816 74.7359 9.784 74.7359 8.168C74.7359 7.624 74.6159 7.112 74.3759 6.632C75.4959 5.944 76.4719 5.6 77.3039 5.6C78.8559 5.6 79.6319 6.496 79.6319 8.288C79.6319 9.712 78.9759 12.216 77.6639 15.8C77.4239 16.456 77.2879 16.84 77.2559 16.952C75.2239 22.744 72.3359 25.64 68.5919 25.64C67.4559 25.64 66.5199 25.392 65.7839 24.896C65.0479 24.416 64.6799 23.776 64.6799 22.976C64.6799 22.192 64.9759 21.368 65.5679 20.504C66.3359 21.592 67.2959 22.136 68.4479 22.136C69.1039 22.136 69.7119 21.92 70.2719 21.488C70.8479 21.056 71.3039 20.4 71.6399 19.52ZM81.0794 12.632C81.0794 11.512 81.3194 10.376 81.7994 9.224C82.2794 8.056 82.9594 6.976 83.8394 5.984C84.7194 4.992 85.8634 4.184 87.2714 3.56C88.6954 2.92 90.1594 2.6 91.6634 2.6C93.1834 2.6 94.3674 2.88 95.2154 3.44C96.0794 4 96.5114 4.776 96.5114 5.768C96.5114 6.76 96.1834 7.536 95.5274 8.096C94.8874 8.64 94.1514 8.912 93.3194 8.912C92.4874 8.912 91.7354 8.736 91.0634 8.384C90.4074 8.016 89.8794 7.496 89.4794 6.824C88.6154 7.24 87.8714 8.056 87.2474 9.272C86.6234 10.488 86.3114 11.712 86.3114 12.944C86.3114 14.16 86.5114 15.128 86.9114 15.848C87.3114 16.552 87.8794 16.904 88.6154 16.904C89.3514 16.904 89.9994 16.528 90.5594 15.776C91.1354 15.024 91.4234 14.12 91.4234 13.064C93.0394 13.064 94.1914 13.192 94.8794 13.448C95.5834 13.704 95.9354 14.256 95.9354 15.104C95.9354 16.432 95.2154 17.68 93.7754 18.848C92.3354 20.016 90.5274 20.6 88.3514 20.6C86.1754 20.6 84.4154 19.928 83.0714 18.584C81.7434 17.24 81.0794 15.256 81.0794 12.632ZM106.99 17.048L106.75 16.928C106.318 18.08 105.694 18.984 104.878 19.64C104.078 20.28 103.182 20.6 102.19 20.6C100.83 20.6 99.7422 20.088 98.9262 19.064C98.1102 18.04 97.7022 16.672 97.7022 14.96C97.7022 12.304 98.5902 10.08 100.366 8.288C102.158 6.496 104.382 5.6 107.038 5.6C107.726 5.6 108.358 5.664 108.934 5.792C109.03 6.24 109.086 6.632 109.102 6.968C109.902 6.456 110.726 6.2 111.574 6.2C112.742 6.2 113.326 6.832 113.326 8.096C113.326 8.544 113.07 9.896 112.558 12.152C112.062 14.408 111.814 16.08 111.814 17.168C111.814 18.256 112.062 19.008 112.558 19.424C111.662 20.208 110.726 20.6 109.75 20.6C108.79 20.6 108.086 20.312 107.638 19.736C107.206 19.16 106.99 18.264 106.99 17.048ZM102.214 13.784C102.214 14.568 102.374 15.176 102.694 15.608C103.03 16.024 103.502 16.232 104.11 16.232C104.718 16.232 105.318 16.008 105.91 15.56C106.502 15.112 106.998 14.496 107.398 13.712C107.542 12.096 107.854 10.184 108.334 7.976C106.718 7.976 105.294 8.56 104.062 9.728C102.83 10.896 102.214 12.248 102.214 13.784ZM115.734 12.392C115.622 12.04 115.566 11.68 115.566 11.312C115.566 10.544 115.782 9.96 116.214 9.56C116.646 9.16 117.198 8.952 117.87 8.936C117.758 8.44 117.702 7.896 117.702 7.304C117.702 5.544 118.158 4.032 119.07 2.768C119.982 1.488 121.27 0.847999 122.934 0.847999C123.846 0.847999 124.558 1.12 125.07 1.664C125.598 2.208 125.862 2.84 125.862 3.56C125.862 4.28 125.614 4.896 125.118 5.408C124.622 5.904 123.974 6.152 123.174 6.152C122.374 6.152 121.662 5.96 121.038 5.576L120.702 5.84L121.542 8.696C122.374 8.584 123.222 8.368 124.086 8.048C124.198 8.4 124.254 8.832 124.254 9.344C124.254 9.84 124.102 10.312 123.798 10.76C123.51 11.192 123.086 11.472 122.526 11.6C121.502 16.32 120.99 19.68 120.99 21.68C120.99 22.704 121.238 23.432 121.734 23.864C120.566 24.648 119.526 25.04 118.614 25.04C116.822 25.04 115.926 23.936 115.926 21.728C115.926 20.352 116.422 17.104 117.414 11.984C116.694 12.128 116.134 12.264 115.734 12.392ZM132.717 20.6C130.525 20.6 128.829 20.032 127.629 18.896C126.445 17.76 125.853 16.224 125.853 14.288C125.853 11.712 126.733 9.624 128.493 8.024C130.269 6.408 132.493 5.6 135.165 5.6C136.653 5.6 137.781 5.936 138.549 6.608C139.317 7.264 139.701 8.136 139.701 9.224C139.701 10.712 138.973 11.952 137.517 12.944C136.077 13.92 133.845 14.416 130.821 14.432C130.869 15.456 131.101 16.264 131.517 16.856C131.933 17.432 132.453 17.72 133.077 17.72C133.701 17.72 134.237 17.512 134.685 17.096C135.149 16.68 135.381 16 135.381 15.056C137.717 15.056 138.885 15.608 138.885 16.712C138.885 17.656 138.309 18.544 137.157 19.376C136.005 20.192 134.525 20.6 132.717 20.6ZM134.757 8.408C133.941 8.408 133.189 8.816 132.501 9.632C131.829 10.448 131.341 11.408 131.037 12.512C132.637 12.384 133.837 12.024 134.637 11.432C135.453 10.824 135.861 10.184 135.861 9.512C135.861 9.192 135.757 8.928 135.549 8.72C135.357 8.512 135.093 8.408 134.757 8.408Z" fill="#333333"/>
</svg>
