<svg width="128" height="28" viewBox="0 0 128 28" fill="none" xmlns="http://www.w3.org/2000/svg">
<path d="M5.16109 14.08C5.16109 15.184 5.95309 15.736 7.53709 15.736C9.13709 15.736 9.93709 15.24 9.93709 14.248C9.93709 13.72 9.66509 13.288 9.12109 12.952C8.57709 12.616 7.91309 12.336 7.12909 12.112C6.36109 11.888 5.58509 11.632 4.80109 11.344C4.03309 11.04 3.37709 10.576 2.83309 9.952C2.28909 9.312 2.01709 8.52 2.01709 7.576C2.01709 3.56 4.60109 1.552 9.76909 1.552C11.6571 1.552 13.0811 1.912 14.0411 2.632C15.0171 3.336 15.5051 4.32 15.5051 5.584C15.5051 6.048 15.4411 6.496 15.3131 6.928C15.2011 7.344 15.0811 7.64 14.9531 7.816L14.7611 8.104H10.5131C10.8651 7.736 11.0411 7.272 11.0411 6.712C11.0411 5.672 10.3611 5.152 9.00109 5.152C7.28909 5.152 6.43309 5.696 6.43309 6.784C6.43309 7.328 6.70509 7.76 7.24909 8.08C7.79309 8.4 8.44909 8.656 9.21709 8.848C10.0011 9.024 10.7851 9.248 11.5691 9.52C12.3531 9.792 13.0171 10.248 13.5611 10.888C14.1051 11.512 14.3771 12.328 14.3771 13.336C14.3771 15.368 13.7691 16.88 12.5531 17.872C11.3371 18.848 9.46509 19.336 6.93709 19.336C4.40909 19.336 2.68109 18.888 1.75309 17.992C1.06509 17.32 0.721094 16.392 0.721094 15.208C0.721094 14.76 0.769094 14.272 0.865094 13.744L0.937094 13.36H5.25709L5.20909 13.648C5.17709 13.808 5.16109 13.952 5.16109 14.08ZM21.3476 19.336C19.4916 19.336 18.1556 18.92 17.3396 18.088C16.7316 17.48 16.4276 16.664 16.4276 15.64C16.4276 15.304 16.4596 14.944 16.5236 14.56L18.1556 5.272L22.5476 3.448L21.8516 7.456H28.4756L27.8756 10.84H21.2516L20.7716 13.552C20.7076 13.856 20.6756 14.128 20.6756 14.368C20.6756 15.376 21.1556 15.88 22.1156 15.88C22.6276 15.88 23.0516 15.664 23.3876 15.232C23.7396 14.8 23.9796 14.224 24.1076 13.504H28.0916C27.4196 17.392 25.1716 19.336 21.3476 19.336ZM40.9515 15.304C40.9515 15.72 41.1595 15.928 41.5755 15.928C42.0075 15.928 42.3675 15.848 42.6555 15.688L42.5355 18.4C41.7675 19.024 40.9035 19.336 39.9435 19.336C38.1355 19.336 37.1515 18.64 36.9915 17.248C36.0315 18.64 34.7355 19.336 33.1035 19.336C31.4875 19.336 30.4395 18.968 29.9595 18.232C29.6395 17.768 29.4795 17.24 29.4795 16.648C29.4795 16.056 29.5275 15.512 29.6235 15.016L30.9675 7.456H35.0475L33.9195 13.84C33.8715 14.128 33.8475 14.416 33.8475 14.704C33.8475 15.472 34.2795 15.856 35.1435 15.856C35.8635 15.856 36.4395 15.608 36.8715 15.112L38.2395 7.456H42.3195L40.9755 15.016C40.9595 15.112 40.9515 15.208 40.9515 15.304ZM55.4051 15.304C55.4051 15.72 55.6131 15.928 56.0291 15.928C56.4611 15.928 56.8211 15.848 57.1091 15.688L56.9891 18.4C56.2211 19.024 55.3571 19.336 54.3971 19.336C52.6371 19.336 51.6611 18.696 51.4691 17.416C50.6691 18.696 49.4931 19.336 47.9411 19.336C45.3171 19.336 44.0051 18.208 44.0051 15.952C44.0051 15.568 44.0451 15.144 44.1251 14.68L44.6291 11.872C44.8851 10.432 45.4691 9.288 46.3811 8.44C47.3091 7.576 48.5891 7.144 50.2211 7.144C51.2291 7.144 52.0291 7.36 52.6211 7.792L53.8451 0.783998H57.9491L55.4291 15.016C55.4131 15.112 55.4051 15.208 55.4051 15.304ZM48.3011 14.152C48.2691 14.296 48.2531 14.496 48.2531 14.752C48.2531 15.008 48.3731 15.264 48.6131 15.52C48.8531 15.76 49.2531 15.88 49.8131 15.88C50.3891 15.88 50.8851 15.656 51.3011 15.208L52.0211 11.176C51.8451 10.776 51.4291 10.576 50.7731 10.576C49.5411 10.576 48.8211 11.168 48.6131 12.352L48.3011 14.152ZM63.6393 13.84C63.5913 14.128 63.5673 14.416 63.5673 14.704C63.5673 15.472 63.9993 15.856 64.8633 15.856C65.5673 15.856 66.1513 15.608 66.6153 15.112L67.9593 7.456H72.0393L69.9273 19.384C69.5753 21.416 68.7673 23.024 67.5033 24.208C66.2553 25.392 64.8233 25.984 63.2073 25.984C61.5913 25.984 60.4233 25.688 59.7033 25.096C58.9993 24.504 58.6473 23.728 58.6473 22.768C58.6473 21.408 59.4873 20.2 61.1673 19.144C60.2553 18.92 59.6793 18.464 59.4393 17.776C59.2953 17.392 59.2233 16.96 59.2233 16.48C59.2233 16 59.2633 15.512 59.3433 15.016L60.6873 7.456H64.7673L63.6393 13.84ZM63.7593 22.552C64.7993 22.552 65.4793 21.608 65.7993 19.72L66.0393 18.328C63.8153 19.368 62.7033 20.416 62.7033 21.472C62.7033 21.792 62.7913 22.048 62.9673 22.24C63.1593 22.448 63.4233 22.552 63.7593 22.552ZM78.7428 19.336C76.4548 19.336 74.8708 18.84 73.9908 17.848C73.3828 17.144 73.0788 16.16 73.0788 14.896C73.0788 14.352 73.1348 13.768 73.2468 13.144L74.2308 7.624C74.9508 3.576 77.5508 1.552 82.0308 1.552C83.8868 1.552 85.2948 1.952 86.2548 2.752C87.2148 3.536 87.6948 4.616 87.6948 5.992C87.6948 6.632 87.5988 7.272 87.4068 7.912C87.2308 8.536 87.0548 9 86.8788 9.304L86.6148 9.784H82.3668C82.8948 9.176 83.1588 8.312 83.1588 7.192C83.1588 6.6 83.0068 6.136 82.7028 5.8C82.3988 5.448 81.9508 5.272 81.3588 5.272C79.7428 5.272 78.7828 6.168 78.4788 7.96L77.6388 12.808C77.5588 13.224 77.5188 13.632 77.5188 14.032C77.5188 15.088 78.1508 15.616 79.4148 15.616C80.9348 15.616 81.8468 14.76 82.1508 13.048H86.4708L86.3508 13.744C85.7108 17.472 83.1748 19.336 78.7428 19.336ZM99.5379 15.304C99.5379 15.72 99.7459 15.928 100.162 15.928C100.594 15.928 100.954 15.848 101.242 15.688L101.122 18.4C100.354 19.024 99.4899 19.336 98.5299 19.336C96.7699 19.336 95.7939 18.696 95.6019 17.416C94.8019 18.696 93.6259 19.336 92.0739 19.336C89.4499 19.336 88.1379 18.208 88.1379 15.952C88.1379 15.568 88.1779 15.144 88.2579 14.68L88.7619 11.872C89.0179 10.432 89.6019 9.288 90.5139 8.44C91.4419 7.576 92.6419 7.144 94.1139 7.144C95.6019 7.144 96.6099 7.488 97.1379 8.176L97.2579 7.456H100.906L99.5619 15.016C99.5459 15.112 99.5379 15.208 99.5379 15.304ZM92.4339 14.152C92.4019 14.296 92.3859 14.496 92.3859 14.752C92.3859 15.008 92.5059 15.264 92.7459 15.52C92.9859 15.76 93.3859 15.88 93.9459 15.88C94.5219 15.88 95.0179 15.656 95.4339 15.208L96.1539 11.176C95.9779 10.776 95.5619 10.576 94.9059 10.576C93.6739 10.576 92.9539 11.168 92.7459 12.352L92.4339 14.152ZM113.159 19.432C113.159 21.768 112.559 23.68 111.359 25.168C110.175 26.672 108.559 27.424 106.511 27.424C104.479 27.424 103.127 26.92 102.455 25.912C102.039 25.272 101.831 24.488 101.831 23.56C101.831 22.648 101.911 21.736 102.071 20.824L105.143 3.448H109.223L108.503 7.456H114.479L113.879 10.84H109.175C110.311 11.752 111.255 12.936 112.007 14.392C112.775 15.848 113.159 17.528 113.159 19.432ZM107.135 23.992C107.631 23.992 108.055 23.592 108.407 22.792C108.759 21.992 108.935 20.936 108.935 19.624C108.935 18.328 108.799 17.016 108.527 15.688C108.271 14.36 107.959 13.32 107.591 12.568L106.151 20.8C106.055 21.36 106.007 21.848 106.007 22.264C106.007 23.416 106.383 23.992 107.135 23.992ZM120.013 19.336C116.685 19.336 115.021 18.184 115.021 15.88C115.021 15.56 115.053 15.216 115.117 14.848L115.621 11.872C115.893 10.336 116.597 9.16 117.733 8.344C118.885 7.512 120.405 7.096 122.293 7.096C125.509 7.096 127.117 8.312 127.117 10.744C127.117 11.096 127.085 11.48 127.021 11.896L126.733 13.6H119.413L119.317 14.152C119.285 14.344 119.269 14.52 119.269 14.68C119.269 15.56 119.789 16 120.829 16C121.213 16 121.541 15.88 121.813 15.64C122.085 15.4 122.245 15.12 122.293 14.8L126.277 14.848C125.749 17.84 123.661 19.336 120.013 19.336ZM122.893 12.136C122.957 11.864 122.989 11.616 122.989 11.392C122.989 11.152 122.885 10.912 122.677 10.672C122.469 10.432 122.133 10.312 121.669 10.312C121.221 10.312 120.805 10.464 120.421 10.768C120.053 11.072 119.797 11.528 119.653 12.136H122.893Z" fill="#333333"/>
</svg>
